<?xml version="1.0" encoding="utf-8"?>
<!-- Generator: Adobe Illustrator 27.5.0, SVG Export Plug-In . SVG Version: 6.00 Build 0)  -->
<svg version="1.1" id="Laag_1" xmlns="http://www.w3.org/2000/svg" xmlns:xlink="http://www.w3.org/1999/xlink" x="0px" y="0px"
	 viewBox="0 0 2200 500" style="enable-background:new 0 0 2200 500;" xml:space="preserve">
<style type="text/css">
	.st0{fill:#7890A9;}
	.st1{fill:#2E95CF;}
	.st2{fill:#F47C31;}
	.st3{fill:#A7BA53;}
	.st4{fill:#82CBB5;}
	.st5{fill:#2BB8D9;}
	.st6{fill:#5B6D93;}
	.st7{fill:#185C78;}
	.st8{fill:#F8AE31;}
	.st9{fill:#E1AD37;}
	.st10{fill:#4E6838;}
	.st11{fill:#664575;}
	.st12{fill:#9B4945;}
	.st13{fill:#F05D5A;}
	.st14{fill:#9B6E56;}
	.st15{fill:#6E5A8F;}
	.st16{fill:#F79B40;}
	.st17{fill:#5FAAB1;}
	.st18{fill:#F79D78;}
	.st19{fill:#D2AACE;}
	.st20{fill:#E9C96B;}
	.st21{fill:#BCD497;}
	.st22{fill:#595A55;}
	.st23{fill:#32585E;}
	.st24{fill:#D1A183;}
	.st25{fill:#698944;}
	.st26{fill:#B25D74;}
	.st27{fill:#004C6D;}
</style>
<g>
	<path class="st0" d="M330,355.6c-6.5,0-11.8-5.3-11.8-11.8l0,0c0-6.5,5.3-11.8,11.8-11.8l0,0c6.5,0,11.8,5.3,11.8,11.8l0,0
		C341.8,350.3,336.6,355.6,330,355.6L330,355.6L330,355.6z"/>
	<path class="st1" d="M297.5,353.2c-6.5-1-10.9-7-9.9-13.4l0,0c1-6.5,7-10.9,13.4-9.9h0c6.5,1,10.9,7,9.9,13.5l0,0
		c-0.9,5.9-5.9,10.1-11.7,10.1l0,0C298.7,353.4,298.1,353.3,297.5,353.2z"/>
	<path class="st2" d="M349.1,343.3c-1-6.5,3.5-12.5,9.9-13.5l0,0c6.4-1,12.5,3.5,13.5,9.9l0,0c1,6.5-3.5,12.5-9.9,13.5l0,0
		c-0.6,0.1-1.2,0.1-1.8,0.1l0,0C355,353.4,350,349.2,349.1,343.3z"/>
	<path class="st3" d="M265.6,345.8C265.6,345.8,265.6,345.8,265.6,345.8L265.6,345.8c-6.2-2-9.6-8.7-7.6-14.9l0,0
		c2-6.2,8.7-9.6,14.9-7.6l0,0c6.2,2,9.6,8.7,7.6,14.9l0,0c-1.6,5-6.3,8.2-11.2,8.2l0,0C268,346.4,266.8,346.2,265.6,345.8z"/>
	<path class="st4" d="M379.5,338.1c-2-6.2,1.4-12.9,7.6-14.9l0,0c6.2-2,12.9,1.4,14.9,7.6l0,0c2,6.2-1.4,12.9-7.6,14.9l0,0
		c0,0,0,0,0,0l0,0c-1.2,0.4-2.5,0.6-3.7,0.6l0,0C385.8,346.3,381.2,343.1,379.5,338.1z"/>
	<path class="st0" d="M235.2,332.7c-5.7-3.2-7.8-10.4-4.6-16.1l0,0c3.2-5.7,10.4-7.8,16.1-4.6l0,0c5.7,3.2,7.8,10.4,4.6,16.1l0,0
		c-2.2,3.9-6.2,6.1-10.3,6.1l0,0C239,334.1,237,333.7,235.2,332.7z"/>
	<path class="st5" d="M408.7,328c-3.2-5.7-1.1-12.9,4.6-16.1l0,0c5.7-3.2,12.9-1.1,16.1,4.6l0,0c3.2,5.7,1.1,12.9-4.6,16.1l0,0
		c-1.8,1-3.8,1.5-5.7,1.5l0,0C414.9,334.1,410.9,331.9,408.7,328z"/>
	<path class="st6" d="M207.9,312.9c-4.7-4.5-5-12-0.5-16.7l0,0c4.5-4.7,12-5,16.7-0.5l0,0c4.7,4.5,5,12,0.5,16.7l0,0
		c-2.3,2.5-5.5,3.7-8.6,3.7l0,0C213.1,316.1,210.2,315,207.9,312.9z"/>
	<path class="st7" d="M435.4,312.3c-4.5-4.7-4.3-12.2,0.5-16.7l0,0c4.7-4.5,12.2-4.3,16.7,0.5l0,0c4.5,4.7,4.3,12.2-0.5,16.7l0,0
		c-2.3,2.2-5.2,3.2-8.1,3.2l0,0C440.9,316,437.7,314.8,435.4,312.3z"/>
	<path class="st8" d="M186.9,285.1c-2.9-5.8-0.5-12.9,5.3-15.9l0,0c5.8-2.9,12.9-0.5,15.9,5.3v0c2.9,5.8,0.5,12.9-5.3,15.9l0,0
		c-1.7,0.8-3.5,1.2-5.3,1.2l0,0C193.1,291.7,189,289.3,186.9,285.1z"/>
	<path class="st9" d="M457.2,290.3c-5.8-2.9-8.2-10-5.3-15.9l0,0c2.9-5.8,10-8.2,15.9-5.3l0,0c5.8,2.9,8.2,10,5.3,15.9l0,0l0,0l0,0
		c-2.1,4.2-6.2,6.6-10.6,6.6l0,0C460.7,291.5,458.9,291.1,457.2,290.3z"/>
	<path class="st10" d="M178.4,250.2c0-6.5,5.3-11.8,11.8-11.8l0,0c6.5,0,11.8,5.3,11.8,11.8l0,0c0,6.5-5.3,11.8-11.8,11.8l0,0
		c0,0,0,0,0,0l0,0C183.7,262,178.4,256.7,178.4,250.2z"/>
	<path class="st11" d="M457.8,250c0,0,0-0.1,0-0.1l0,0c0,0,0-0.1,0-0.1l0,0c0-6.5,5.2-11.8,11.8-11.9l0,0c6.5,0,11.8,5.2,11.9,11.8
		l0,0c0,0.1,0,0.1,0,0.2l0,0c0,0,0,0.1,0,0.1l0,0c0,6.5-5.3,11.8-11.8,11.8l0,0C463.1,261.8,457.8,256.5,457.8,250z"/>
	<path class="st12" d="M192.1,231c-5.9-2.9-8.3-10-5.4-15.8l0,0c2.9-5.9,10-8.3,15.8-5.4l0,0c5.9,2.9,8.3,10,5.4,15.8l0,0
		c-2.1,4.2-6.3,6.6-10.6,6.6l0,0C195.6,232.2,193.8,231.8,192.1,231z"/>
	<path class="st13" d="M451.8,225.4c-2.9-5.8-0.6-12.9,5.3-15.9l0,0c5.8-2.9,12.9-0.6,15.9,5.3l0,0c2.9,5.8,0.6,12.9-5.3,15.9l0,0
		c-1.7,0.9-3.5,1.3-5.3,1.3l0,0C458.1,231.9,453.9,229.5,451.8,225.4z"/>
	<path class="st14" d="M207.2,204c-4.5-4.7-4.3-12.2,0.4-16.7l0,0l0,0l0,0c4.7-4.5,12.2-4.3,16.7,0.4l0,0c4.5,4.7,4.3,12.2-0.4,16.7
		l0,0c-2.3,2.2-5.2,3.2-8.1,3.2l0,0C212.7,207.7,209.6,206.5,207.2,204z"/>
	<path class="st3" d="M435.7,204.2c-4.7-4.5-5-12-0.5-16.7l0,0c4.5-4.8,12-5,16.7-0.5l0,0l0,0l0,0c4.7,4.5,5,12,0.5,16.7l0,0
		c-2.3,2.5-5.5,3.7-8.6,3.7l0,0C440.9,207.5,438,206.4,435.7,204.2z"/>
	<path class="st15" d="M230.4,183.6c-3.2-5.7-1.1-12.9,4.6-16.1l0,0c5.7-3.2,12.9-1.1,16.1,4.6l0,0c3.2,5.7,1.1,12.9-4.6,16.1l0,0
		c-1.8,1-3.8,1.5-5.7,1.5l0,0C236.6,189.6,232.6,187.5,230.4,183.6z"/>
	<path class="st16" d="M413.1,188c-5.7-3.2-7.8-10.4-4.6-16.1l0,0c3.2-5.7,10.4-7.8,16.1-4.6l0,0c5.7,3.2,7.8,10.4,4.6,16.1l0,0
		c-2.2,3.9-6.2,6.1-10.4,6.1l0,0C416.9,189.4,414.9,189,413.1,188z"/>
	<path class="st17" d="M257.8,169.2c-2-6.2,1.4-12.9,7.6-14.9l0,0c6.2-2,12.9,1.4,14.9,7.6l0,0c2,6.2-1.4,12.9-7.6,14.9l0,0
		c-1.2,0.4-2.5,0.6-3.7,0.6l0,0C264,177.4,259.4,174.2,257.8,169.2z"/>
	<path class="st14" d="M386.9,176.7c-6.2-2-9.6-8.7-7.6-14.9l0,0c2-6.2,8.7-9.6,14.9-7.6l0,0c0,0,0,0,0,0l0,0
		c6.2,2,9.6,8.7,7.6,14.9l0,0c-1.6,5-6.3,8.2-11.2,8.2l0,0C389.3,177.3,388.1,177.1,386.9,176.7z"/>
	<path class="st4" d="M287.3,160.3c-1-6.5,3.5-12.5,9.9-13.5l0,0c6.5-1,12.5,3.5,13.5,9.9l0,0c1,6.5-3.5,12.5-9.9,13.5l0,0
		c-0.6,0.1-1.2,0.1-1.8,0.1l0,0C293.3,170.3,288.2,166.1,287.3,160.3z"/>
	<path class="st18" d="M358.8,170.1c-6.5-1-10.9-7-9.9-13.4l0,0c1-6.5,7-10.9,13.4-9.9l0,0c6.5,1,10.9,7,9.9,13.4l0,0
		c-0.9,5.9-5.9,10.1-11.7,10.1l0,0C359.9,170.3,359.4,170.2,358.8,170.1z"/>
	<path class="st2" d="M317.9,156.2c0-6.5,5.3-11.8,11.8-11.8l0,0c6.5,0,11.8,5.3,11.8,11.8l0,0c0,6.5-5.3,11.8-11.8,11.8l0,0
		C323.2,168,317.9,162.7,317.9,156.2z"/>
	<path class="st2" d="M313.5,327.3L313.5,327.3L313.5,327.3c-6.5-0.6-11.3-6.3-10.8-12.8l0,0c0.6-6.5,6.3-11.3,12.8-10.8l0,0
		c6.5,0.6,11.3,6.3,10.8,12.8l0,0c-0.5,6.2-5.7,10.8-11.8,10.8l0,0C314.2,327.3,313.9,327.3,313.5,327.3z"/>
	<path class="st3" d="M333.7,316.5c-0.6-6.5,4.2-12.2,10.8-12.8l0,0c6.5-0.6,12.2,4.2,12.8,10.8l0,0c0.6,6.5-4.2,12.2-10.8,12.8l0,0
		l0,0l0,0c-0.4,0-0.7,0-1,0l0,0C339.4,327.3,334.2,322.6,333.7,316.5z"/>
	<path class="st19" d="M280.9,321.4L280.9,321.4L280.9,321.4c-6.3-1.8-9.9-8.3-8.2-14.6l0,0c1.8-6.3,8.3-9.9,14.6-8.2l0,0
		c6.3,1.8,9.9,8.3,8.2,14.6l0,0c-1.5,5.2-6.2,8.6-11.4,8.6l0,0C283,321.8,282,321.7,280.9,321.4z"/>
	<path class="st20" d="M364.5,313.2c-1.8-6.3,1.9-12.8,8.1-14.6l0,0c6.3-1.8,12.8,1.9,14.6,8.1l0,0c1.8,6.3-1.9,12.8-8.1,14.6l0,0
		c-1.1,0.3-2.2,0.5-3.2,0.5l0,0C370.7,321.8,366,318.4,364.5,313.2z"/>
	<path class="st21" d="M249.7,308.5c-5.7-3.2-7.6-10.5-4.4-16.1l0,0c3.2-5.7,10.5-7.6,16.1-4.4l0,0c5.7,3.2,7.6,10.5,4.4,16.1l0,0
		c-2.2,3.8-6.2,6-10.3,6l0,0C253.5,310,251.5,309.5,249.7,308.5z"/>
	<path class="st22" d="M394.2,304c-3.2-5.7-1.3-12.9,4.4-16.1l0,0c5.7-3.2,12.9-1.3,16.1,4.4l0,0c3.2,5.7,1.3,12.9-4.4,16.1l0,0
		c0,0,0,0,0,0l0,0c-1.9,1.1-3.9,1.6-5.9,1.6l0,0C400.4,310,396.4,307.8,394.2,304z"/>
	<path class="st23" d="M222.6,285.9C222.6,285.9,222.6,285.9,222.6,285.9L222.6,285.9c-4-5.1-3.2-12.6,2-16.6l0,0
		c5.1-4,12.6-3.2,16.6,2l0,0c4,5.1,3.2,12.6-2,16.6l0,0c-2.2,1.7-4.7,2.5-7.3,2.5l0,0C228.4,290.4,224.9,288.8,222.6,285.9z"/>
	<path class="st19" d="M420.8,287.8c-5.1-4-6-11.5-2-16.6l0,0c4-5.1,11.5-6,16.6-2l0,0c5.1,4,6,11.5,2,16.6l0,0
		c-2.3,3-5.8,4.5-9.3,4.5l0,0C425.5,290.3,423,289.5,420.8,287.8z"/>
	<path class="st24" d="M209.4,250.1L209.4,250.1L209.4,250.1c0-6.5,5.3-11.8,11.8-11.9l0,0c6.5,0,11.8,5.3,11.9,11.8l0,0
		c0,6.5-5.3,11.8-11.8,11.9l0,0c0,0,0,0,0,0l0,0C214.7,261.9,209.5,256.7,209.4,250.1z"/>
	<path class="st10" d="M426.8,250C426.8,250,426.8,249.9,426.8,250L426.8,250c0-0.1,0-0.1,0-0.2l0,0c0-6.5,5.2-11.9,11.8-11.9l0,0
		c6.5,0,11.9,5.2,11.9,11.8l0,0c0,0.1,0,0.1,0,0.2l0,0c0,0,0,0.1,0,0.1l0,0c0,6.5-5.3,11.8-11.8,11.8l0,0
		C432.1,261.8,426.8,256.5,426.8,250z"/>
	<path class="st25" d="M224.5,231c-5.1-4-6.1-11.5-2-16.6l0,0l0,0l0,0c4-5.1,11.5-6.1,16.6-2l0,0c5.1,4,6,11.5,2,16.6h0
		c-2.3,3-5.8,4.5-9.3,4.5l0,0C229.2,233.5,226.6,232.6,224.5,231z"/>
	<path class="st24" d="M418.7,228.7c-4.1-5.1-3.2-12.6,1.9-16.6l0,0c5.1-4,12.6-3.2,16.6,1.9l0,0c4.1,5.1,3.2,12.6-1.9,16.6l0,0
		c-2.2,1.7-4.8,2.5-7.3,2.5l0,0C424.5,233.2,421,231.7,418.7,228.7z"/>
	<path class="st12" d="M245.1,207.8c-3.3-5.7-1.3-12.9,4.4-16.1l0,0c5.7-3.3,12.9-1.3,16.1,4.4l0,0c3.3,5.7,1.3,12.9-4.4,16.1v0
		c-1.9,1.1-3.9,1.6-5.9,1.6l0,0C251.3,213.7,247.3,211.6,245.1,207.8z"/>
	<path class="st13" d="M398.4,212L398.4,212c-5.7-3.2-7.7-10.5-4.4-16.1l0,0c3.2-5.7,10.5-7.7,16.1-4.4l0,0
		c5.7,3.2,7.7,10.5,4.4,16.1l0,0c-2.2,3.8-6.2,6-10.3,6l0,0C402.3,213.6,400.3,213.1,398.4,212z"/>
	<path class="st16" d="M272.5,193.3c-1.8-6.3,1.9-12.8,8.1-14.6l0,0c6.3-1.8,12.8,1.8,14.6,8.1l0,0c1.8,6.3-1.9,12.8-8.1,14.6l0,0
		c-1.1,0.3-2.2,0.5-3.2,0.5l0,0C278.7,201.9,274,198.5,272.5,193.3z"/>
	<path class="st25" d="M372.5,201.4c-6.3-1.8-9.9-8.3-8.2-14.6l0,0c1.8-6.3,8.3-9.9,14.6-8.2l0,0c6.3,1.8,9.9,8.3,8.2,14.6l0,0
		c-1.5,5.2-6.2,8.6-11.4,8.6l0,0C374.6,201.8,373.5,201.7,372.5,201.4z"/>
	<path class="st22" d="M302.5,185.6c-0.6-6.5,4.2-12.2,10.7-12.8l0,0c6.5-0.6,12.2,4.2,12.8,10.8l0,0c0.6,6.5-4.2,12.2-10.7,12.8
		l0,0c-0.4,0-0.7,0-1.1,0l0,0C308.2,196.4,303.1,191.7,302.5,185.6z"/>
	<path class="st11" d="M344.2,196.3L344.2,196.3c-6.5-0.6-11.3-6.3-10.8-12.8l0,0c0.6-6.5,6.3-11.3,12.8-10.8l0,0
		c6.5,0.6,11.3,6.3,10.8,12.8l0,0c-0.5,6.2-5.7,10.8-11.8,10.8l0,0C344.9,196.3,344.6,196.3,344.2,196.3z"/>
	<path class="st11" d="M330,299c-6.5,0-11.8-5.3-11.8-11.8l0,0c0-6.5,5.3-11.8,11.8-11.8l0,0c6.5,0,11.8,5.3,11.8,11.8l0,0
		C341.8,293.7,336.5,299,330,299L330,299L330,299z"/>
	<path class="st9" d="M296.6,295.8c-6.4-1.3-10.5-7.6-9.2-13.9l0,0c1.3-6.4,7.6-10.5,13.9-9.2l0,0c6.4,1.3,10.5,7.6,9.2,14l0,0
		c-1.2,5.6-6.1,9.5-11.6,9.5l0,0C298.1,296,297.3,295.9,296.6,295.8z"/>
	<path class="st13" d="M349.5,286.5c-1.3-6.4,2.8-12.6,9.2-14l0,0c6.4-1.3,12.6,2.8,14,9.2l0,0c1.3,6.4-2.8,12.6-9.2,14l0,0
		c-0.8,0.2-1.6,0.2-2.4,0.2l0,0C355.6,296,350.6,292.1,349.5,286.5z"/>
	<path class="st7" d="M263.7,284.1c-5.7-3.2-7.7-10.5-4.4-16.1l0,0c3.2-5.7,10.5-7.7,16.1-4.4l0,0c5.7,3.2,7.7,10.5,4.4,16.1l0,0
		c-2.2,3.8-6.2,6-10.3,6l0,0C267.6,285.6,265.6,285.1,263.7,284.1z"/>
	<path class="st3" d="M380.1,279.6c-3.2-5.7-1.3-12.9,4.4-16.1l0,0c5.7-3.2,12.9-1.3,16.1,4.4l0,0c3.2,5.7,1.3,12.9-4.4,16.1l0,0
		c0,0,0,0,0,0l0,0c-1.8,1.1-3.9,1.6-5.8,1.6l0,0C386.3,285.6,382.3,283.4,380.1,279.6z"/>
	<path class="st5" d="M239.6,250.1C239.6,250.1,239.6,250.1,239.6,250.1L239.6,250.1c0-6.5,5.2-11.8,11.8-11.9l0,0
		c6.5,0,11.8,5.2,11.9,11.8l0,0c0,6.5-5.2,11.8-11.8,11.9l0,0c0,0,0,0-0.1,0l0,0C244.9,261.9,239.6,256.7,239.6,250.1z"/>
	<path class="st16" d="M396.7,250L396.7,250C396.7,250,396.7,250,396.7,250L396.7,250c-0.1-6.6,5.2-11.9,11.7-12l0,0
		c6.5-0.1,11.9,5.2,11.9,11.7l0,0c0,0,0,0,0,0l0,0c0,0.1,0,0.2,0,0.2l0,0c0,6.5-5.3,11.8-11.8,11.8l0,0
		C401.9,261.8,396.7,256.5,396.7,250z"/>
	<path class="st4" d="M259.2,232.2c-3.2-5.7-1.3-12.9,4.4-16.1l0,0l0,0l0,0c5.7-3.2,12.9-1.3,16.1,4.4l0,0
		c3.2,5.7,1.3,12.9-4.4,16.1l0,0c-1.9,1.1-3.9,1.6-5.9,1.6l0,0C265.3,238.1,261.3,236,259.2,232.2z"/>
	<path class="st14" d="M384.4,236.5c-5.7-3.2-7.7-10.4-4.4-16.1l0,0c3.2-5.7,10.4-7.7,16.1-4.4l0,0c5.7,3.2,7.7,10.4,4.4,16.1l0,0
		c-2.2,3.8-6.2,6-10.3,6l0,0C388.3,238,386.3,237.5,384.4,236.5z"/>
	<path class="st2" d="M287.2,218.2c-1.3-6.4,2.8-12.6,9.2-14l0,0c6.4-1.3,12.6,2.8,14,9.2l0,0c1.3,6.4-2.8,12.6-9.2,14l0,0
		c-0.8,0.2-1.6,0.2-2.4,0.2l0,0C293.2,227.7,288.3,223.8,287.2,218.2z"/>
	<path class="st26" d="M358.6,227.4c-6.4-1.3-10.5-7.5-9.2-13.9l0,0c1.3-6.4,7.6-10.5,13.9-9.2l0,0c6.4,1.3,10.5,7.5,9.2,13.9l0,0
		c-1.1,5.6-6.1,9.5-11.6,9.5l0,0C360.1,227.6,359.3,227.6,358.6,227.4z"/>
	<path class="st0" d="M318,212.8c0-6.5,5.3-11.8,11.8-11.8l0,0l0,0l0,0c6.5,0,11.8,5.3,11.8,11.8l0,0c0,6.5-5.3,11.8-11.8,11.8l0,0
		C323.3,224.6,318,219.3,318,212.8z"/>
	<g>
		<path class="st27" d="M597.6,317.6V182.2c0-1.3,0.7-2,2-2h48.2c13.8,0,24.8,3.6,33,10.8c8.2,7.2,12.3,16.9,12.3,29v59.7
			c0,12.1-4.1,21.7-12.3,29c-8.2,7.2-19.2,10.8-33,10.8h-48.2C598.3,319.6,597.6,318.9,597.6,317.6z M617.5,303h31
			c7.7,0,13.8-2.4,18.4-7.1c4.6-4.7,6.9-11,7.1-19v-54.1c0-8-2.3-14.3-6.9-19c-4.6-4.7-10.8-7.1-18.6-7.1h-31
			c-0.5,0-0.8,0.3-0.8,0.8v104.7C616.8,302.8,617,303,617.5,303z"/>
		<path class="st27" d="M813.2,180.3h15.1c1.3,0,2,0.7,2,2v135.3c0,1.3-0.7,2-2,2h-15.1c-1.3,0-2-0.7-2-2V215.7
			c0-0.4-0.1-0.7-0.4-0.8c-0.3-0.1-0.5,0-0.6,0.4l-28.5,43.4c-0.5,0.8-1.3,1.2-2.4,1.2h-7.6c-0.9,0-1.7-0.4-2.4-1.2l-28.7-43
			c-0.1-0.4-0.3-0.5-0.6-0.4c-0.3,0.1-0.4,0.4-0.4,0.8v101.5c0,1.3-0.7,2-2,2h-15.1c-1.3,0-2-0.7-2-2V182.2c0-1.3,0.7-2,2-2h15.1
			c1.1,0,1.9,0.4,2.4,1.2l34.8,52.1c0.1,0.1,0.3,0.2,0.6,0.2c0.3,0,0.5-0.1,0.6-0.2l34.6-52.1C811.4,180.6,812.2,180.3,813.2,180.3z
			"/>
		<path class="st27" d="M862.9,317.6V182.2c0-1.3,0.7-2,2-2H880c1.3,0,2,0.7,2,2v135.3c0,1.3-0.7,2-2,2h-15.1
			C863.6,319.6,862.9,318.9,862.9,317.6z"/>
		<path class="st27" d="M1055,196.8h-70.6c-0.5,0-0.8,0.3-0.8,0.8v42.8c0,0.5,0.3,0.8,0.8,0.8h48.6c1.3,0,2,0.7,2,2v12.5
			c0,1.3-0.7,2-2,2h-48.6c-0.5,0-0.8,0.3-0.8,0.8v43.8c0,0.5,0.3,0.8,0.8,0.8h70.6c1.3,0,2,0.7,2,2v12.5c0,1.3-0.7,2-2,2h-88.6
			c-1.3,0-2-0.7-2-2V182.2c0-1.3,0.7-2,2-2h88.6c1.3,0,2,0.7,2,2v12.5C1057,196.1,1056.3,196.8,1055,196.8z"/>
		<path class="st27" d="M1092.9,315.7c-7.4-3.8-13.1-9.2-17.1-16.1c-4-7-6.1-15-6.1-24V224c0-9,2-16.9,6.1-23.8
			c4-6.8,9.8-12.1,17.1-15.9s15.8-5.7,25.4-5.7s18,1.8,25.3,5.5c7.3,3.7,13,8.8,17,15.4c4,6.6,6.1,14.3,6.1,23.1v0.2
			c0,0.7-0.2,1.2-0.6,1.6c-0.4,0.4-0.9,0.6-1.4,0.6l-15.1,0.8c-1.3,0-2-0.6-2-1.8v-0.6c0-8.5-2.7-15.3-8-20.5
			c-5.3-5.2-12.4-7.8-21.3-7.8c-8.9,0-16,2.6-21.4,7.8s-8.1,12-8.1,20.5v52.9c0,8.5,2.7,15.3,8.1,20.5c5.4,5.2,12.5,7.8,21.4,7.8
			c8.9,0,16-2.6,21.3-7.8c5.3-5.2,8-12,8-20.5V276c0-1.2,0.7-1.8,2-1.8l15.1,0.8c1.3,0,2,0.7,2,2c0,8.8-2,16.5-6.1,23.2
			c-4,6.7-9.7,11.9-17,15.6c-7.3,3.7-15.7,5.6-25.3,5.6S1100.2,319.5,1092.9,315.7z"/>
		<path class="st27" d="M1213.9,315.4c-7.4-4-13.2-9.6-17.3-16.8c-4.1-7.2-6.2-15.6-6.2-25v-47.4c0-9.4,2.1-17.7,6.2-24.9
			c4.1-7.2,9.9-12.7,17.3-16.7c7.4-4,16-6,25.7-6c9.8,0,18.4,2,25.9,6c7.4,4,13.2,9.6,17.3,16.7c4.1,7.2,6.2,15.5,6.2,24.9v47.4
			c0,9.4-2.1,17.7-6.2,25c-4.1,7.2-9.9,12.8-17.3,16.8c-7.4,4-16.1,6-25.9,6C1229.9,321.3,1221.4,319.4,1213.9,315.4z M1261.5,296.5
			c5.6-5.6,8.4-12.9,8.4-22.1V226c0-9.3-2.8-16.7-8.4-22.4c-5.6-5.6-12.9-8.5-21.9-8.5c-9,0-16.3,2.8-21.8,8.5
			c-5.5,5.6-8.3,13.1-8.3,22.4v48.4c0,9.2,2.8,16.5,8.3,22.1c5.5,5.6,12.8,8.4,21.8,8.4C1248.6,304.8,1255.9,302,1261.5,296.5z"/>
		<path class="st27" d="M1335.4,316.4c-7.5-3.2-13.3-7.7-17.3-13.5c-4-5.8-6.1-12.7-6.1-20.5v-5.8c0-1.3,0.7-2,2-2h14.5
			c1.3,0,2,0.7,2,2v4.8c0,6.8,2.9,12.3,8.8,16.7c5.8,4.4,13.9,6.6,24.1,6.6c9.2,0,16-1.9,20.7-5.8c4.6-3.8,7-8.9,7-15.1
			c0-4.1-1.2-7.6-3.6-10.5c-2.4-2.9-5.9-5.6-10.4-8.1c-4.6-2.5-11.2-5.4-20-8.9c-9.7-3.7-17.3-7.1-23-10.1c-5.6-3.1-10.3-7.1-14-12
			c-3.7-5-5.6-11.2-5.6-18.8c0-11.4,4.1-20.4,12.2-26.9c8.2-6.5,19.2-9.8,33.1-9.8c9.8,0,18.4,1.7,25.9,5c7.4,3.3,13.2,8,17.2,13.9
			c4,6,6.1,12.9,6.1,20.7v4c0,1.3-0.7,2-2,2h-14.9c-1.3,0-2-0.7-2-2v-3c0-6.9-2.8-12.6-8.3-17.2c-5.5-4.6-13.1-6.9-22.8-6.9
			c-8.2,0-14.6,1.7-19.1,5.1c-4.5,3.4-6.8,8.3-6.8,14.6c0,4.4,1.1,8,3.4,10.7c2.3,2.8,5.6,5.3,10,7.5c4.4,2.2,11.2,5,20.4,8.5
			c9.4,3.7,17,7.1,22.9,10.2c5.8,3.1,10.7,7.2,14.5,12.3c3.8,5.1,5.8,11.4,5.8,19c0,11.7-4.3,20.9-12.8,27.8
			c-8.6,6.8-20.3,10.2-35.3,10.2C1351.8,321.1,1342.9,319.6,1335.4,316.4z"/>
		<path class="st27" d="M1463.9,317.4v-55.9c0-0.5-0.1-0.9-0.2-1l-41.4-77.8c-0.1-0.3-0.2-0.6-0.2-1c0-0.9,0.5-1.4,1.6-1.4h16.3
			c1.2,0,2,0.5,2.4,1.4l30.4,58.3c0.1,0.3,0.3,0.4,0.6,0.4c0.3,0,0.5-0.1,0.6-0.4l30.4-58.3c0.4-0.9,1.2-1.4,2.4-1.4h16.5
			c0.7,0,1.2,0.2,1.5,0.7c0.3,0.5,0.3,1-0.1,1.7l-41.6,77.8c-0.1,0.1-0.2,0.5-0.2,1v55.9c0,1.3-0.7,2-2,2h-15.1
			C1464.5,319.4,1463.9,318.7,1463.9,317.4z"/>
		<path class="st27" d="M1559.9,316.4c-7.5-3.2-13.3-7.7-17.3-13.5c-4-5.8-6.1-12.7-6.1-20.5v-5.8c0-1.3,0.7-2,2-2h14.5
			c1.3,0,2,0.7,2,2v4.8c0,6.8,2.9,12.3,8.8,16.7c5.8,4.4,13.9,6.6,24.1,6.6c9.2,0,16-1.9,20.7-5.8c4.6-3.8,7-8.9,7-15.1
			c0-4.1-1.2-7.6-3.6-10.5c-2.4-2.9-5.9-5.6-10.4-8.1c-4.6-2.5-11.2-5.4-20-8.9c-9.7-3.7-17.3-7.1-23-10.1c-5.6-3.1-10.3-7.1-14-12
			c-3.7-5-5.6-11.2-5.6-18.8c0-11.4,4.1-20.4,12.2-26.9c8.2-6.5,19.2-9.8,33.1-9.8c9.8,0,18.4,1.7,25.9,5c7.4,3.3,13.2,8,17.2,13.9
			c4,6,6.1,12.9,6.1,20.7v4c0,1.3-0.7,2-2,2h-14.9c-1.3,0-2-0.7-2-2v-3c0-6.9-2.8-12.6-8.3-17.2c-5.5-4.6-13.1-6.9-22.8-6.9
			c-8.2,0-14.6,1.7-19.1,5.1c-4.5,3.4-6.8,8.3-6.8,14.6c0,4.4,1.1,8,3.4,10.7c2.3,2.8,5.6,5.3,10,7.5c4.4,2.2,11.2,5,20.4,8.5
			c9.4,3.7,17,7.1,22.9,10.2c5.8,3.1,10.7,7.2,14.5,12.3c3.8,5.1,5.8,11.4,5.8,19c0,11.7-4.3,20.9-12.8,27.8
			c-8.6,6.8-20.3,10.2-35.3,10.2C1576.2,321.1,1567.4,319.6,1559.9,316.4z"/>
		<path class="st27" d="M1746.7,182.2V195c0,1.3-0.7,2-2,2h-38.2c-0.5,0-0.8,0.3-0.8,0.8v119.8c0,1.3-0.7,2-2,2h-15.1
			c-1.3,0-2-0.7-2-2V197.8c0-0.5-0.3-0.8-0.8-0.8h-36.4c-1.3,0-2-0.7-2-2v-12.7c0-1.3,0.7-2,2-2h95.3
			C1746,180.3,1746.7,180.9,1746.7,182.2z"/>
		<path class="st27" d="M1857.9,196.8h-70.6c-0.5,0-0.8,0.3-0.8,0.8v42.8c0,0.5,0.3,0.8,0.8,0.8h48.6c1.3,0,2,0.7,2,2v12.5
			c0,1.3-0.7,2-2,2h-48.6c-0.5,0-0.8,0.3-0.8,0.8v43.8c0,0.5,0.3,0.8,0.8,0.8h70.6c1.3,0,2,0.7,2,2v12.5c0,1.3-0.7,2-2,2h-88.6
			c-1.3,0-2-0.7-2-2V182.2c0-1.3,0.7-2,2-2h88.6c1.3,0,2,0.7,2,2v12.5C1859.9,196.1,1859.2,196.8,1857.9,196.8z"/>
		<path class="st27" d="M1976.9,196.8h-70.6c-0.5,0-0.8,0.3-0.8,0.8v42.8c0,0.5,0.3,0.8,0.8,0.8h48.6c1.3,0,2,0.7,2,2v12.5
			c0,1.3-0.7,2-2,2h-48.6c-0.5,0-0.8,0.3-0.8,0.8v43.8c0,0.5,0.3,0.8,0.8,0.8h70.6c1.3,0,2,0.7,2,2v12.5c0,1.3-0.7,2-2,2h-88.6
			c-1.3,0-2-0.7-2-2V182.2c0-1.3,0.7-2,2-2h88.6c1.3,0,2,0.7,2,2v12.5C1978.9,196.1,1978.2,196.8,1976.9,196.8z"/>
		<path class="st27" d="M2097.9,180.3h15.1c1.3,0,2,0.7,2,2v135.3c0,1.3-0.7,2-2,2h-15.1c-1.3,0-2-0.7-2-2V215.7
			c0-0.4-0.1-0.7-0.4-0.8c-0.3-0.1-0.5,0-0.6,0.4l-28.5,43.4c-0.5,0.8-1.3,1.2-2.4,1.2h-7.6c-0.9,0-1.7-0.4-2.4-1.2l-28.7-43
			c-0.1-0.4-0.3-0.5-0.6-0.4c-0.3,0.1-0.4,0.4-0.4,0.8v101.5c0,1.3-0.7,2-2,2h-15.1c-1.3,0-2-0.7-2-2V182.2c0-1.3,0.7-2,2-2h15.1
			c1.1,0,1.9,0.4,2.4,1.2l34.8,52.1c0.1,0.1,0.3,0.2,0.6,0.2c0.3,0,0.5-0.1,0.6-0.2l34.6-52.1
			C2096.1,180.6,2096.9,180.3,2097.9,180.3z"/>
	</g>
	<circle class="st2" cx="923.2" cy="249.9" r="11.1"/>
</g>
</svg>
